{
  "accessors": [
    {
      "bufferView": 2,
      "componentType": 5126,
      "count": 2721,
      "max": [
        0.968105673789978,
        0.41476815938949585,
        -0.2768835425376892
      ],
      "min": [
        -0.9397017955780029,
        -0.13702546060085297,
        -3.6298558712005615
      ],
      "type": "VEC3"
    },
    {
      "bufferView": 2,
      "byteOffset": 32652,
      "componentType": 5126,
      "count": 2721,
      "max": [
        0.999896764755249,
        0.9999998807907104,
        1.0
      ],
      "min": [
        -0.999896764755249,
        -0.8134798407554626,
        -1.0
      ],
      "type": "VEC3"
    },
    {
      "bufferView": 1,
      "componentType": 5126,
      "count": 2721,
      "max": [
        0.875,
        1.0
      ],
      "min": [
        0.0,
        0.0
      ],
      "type": "VEC2"
    },
    {
      "bufferView": 0,
      "componentType": 5125,
      "count": 9984,
      "type": "SCALAR"
    },
    {
      "bufferView": 2,
      "byteOffset": 65304,
      "componentType": 5126,
      "count": 11649,
      "max": [
        1.0723506212234497,
        0.47454628348350525,
        2.852238416671753
      ],
      "min": [
        -1.0723506212234497,
        -0.3486834466457367,
        -3.785414457321167
      ],
      "type": "VEC3"
    },
    {
      "bufferView": 2,
      "byteOffset": 205092,
      "componentType": 5126,
      "count": 11649,
      "max": [
        0.9999734163284302,
        0.9999837875366211,
        0.9999517202377319
      ],
      "min": [
        -0.9999734163284302,
        -0.9996613264083862,
        -0.9999277591705322
      ],
      "type": "VEC3"
    },
    {
      "bufferView": 1,
      "byteOffset": 21768,
      "componentType": 5126,
      "count": 11649,
      "max": [
        1.0,
        1.0
      ],
      "min": [
        0.0,
        0.0
      ],
      "type": "VEC2"
    },
    {
      "bufferView": 0,
      "byteOffset": 39936,
      "componentType": 5125,
      "count": 48642,
      "type": "SCALAR"
    }
  ],
  "asset": {
    "extras": {
      "author": "adadadad5252341 (https://sketchfab.com/adadadad5252341)",
      "license": "CC-BY-4.0 (http://creativecommons.org/licenses/by/4.0/)",
      "source": "https://sketchfab.com/3d-models/free-hair-brush-cc0-6da221933be543948c894ba53108e624",
      "title": "FREE Hair Brush CC0"
    },
    "generator": "Sketchfab-12.68.0",
    "version": "2.0"
  },
  "bufferViews": [
    {
      "buffer": 0,
      "byteLength": 234504,
      "name": "floatBufferViews",
      "target": 34963
    },
    {
      "buffer": 0,
      "byteLength": 114960,
      "byteOffset": 234504,
      "byteStride": 8,
      "name": "floatBufferViews",
      "target": 34962
    },
    {
      "buffer": 0,
      "byteLength": 344880,
      "byteOffset": 349464,
      "byteStride": 12,
      "name": "floatBufferViews",
      "target": 34962
    }
  ],
  "buffers": [
    {
      "byteLength": 694344,
      "uri": "scene.bin"
    }
  ],
  "materials": [
    {
      "doubleSided": true,
      "name": "Material.002",
      "pbrMetallicRoughness": {
        "baseColorFactor": [
          0.0253939,
          0.0253939,
          0.0253939,
          1.0
        ],
        "metallicFactor": 0.0
      }
    },
    {
      "doubleSided": true,
      "name": "Material.001",
      "pbrMetallicRoughness": {
        "baseColorFactor": [
          0.918913,
          0.213271,
          0.326706,
          1.0
        ],
        "metallicFactor": 0.2404475681,
        "roughnessFactor": 0.116024
      }
    }
  ],
  "meshes": [
    {
      "name": "Object_0",
      "primitives": [
        {
          "attributes": {
            "NORMAL": 1,
            "POSITION": 0,
            "TEXCOORD_0": 2
          },
          "indices": 3,
          "material": 0,
          "mode": 4
        }
      ]
    },
    {
      "name": "Object_1",
      "primitives": [
        {
          "attributes": {
            "NORMAL": 5,
            "POSITION": 4,
            "TEXCOORD_0": 6
          },
          "indices": 7,
          "material": 1,
          "mode": 4
        }
      ]
    }
  ],
  "nodes": [
    {
      "children": [
        1
      ],
      "matrix": [
        1.0,
        0.0,
        0.0,
        0.0,
        0.0,
        2.220446049250313e-16,
        -1.0,
        0.0,
        0.0,
        1.0,
        2.220446049250313e-16,
        0.0,
        0.0,
        0.0,
        0.0,
        1.0
      ],
      "name": "Sketchfab_model"
    },
    {
      "children": [
        2
      ],
      "name": "root"
    },
    {
      "children": [
        3
      ],
      "matrix": [
        1.0,
        0.0,
        0.0,
        0.0,
        0.0,
        2.220446049250313e-16,
        1.0,
        0.0,
        0.0,
        -1.0,
        2.220446049250313e-16,
        0.0,
        0.0,
        0.0,
        0.0,
        1.0
      ],
      "name": "GLTF_SceneRootNode"
    },
    {
      "children": [
        4,
        5
      ],
      "matrix": [
        0.03369630500674248,
        0.0,
        0.0,
        0.0,
        0.0,
        0.03369630500674248,
        0.0,
        0.0,
        0.0,
        0.0,
        0.03369630500674248,
        0.0,
        0.0,
        0.01156322006136179,
        0.015231193974614143,
        1.0
      ],
      "name": "Tips_0"
    },
    {
      "mesh": 0,
      "name": "Object_4"
    },
    {
      "mesh": 1,
      "name": "Object_5"
    }
  ],
  "scene": 0,
  "scenes": [
    {
      "name": "Sketchfab_Scene",
      "nodes": [
        0
      ]
    }
  ]
}
